<svg width="124" height="32" fill="none" xmlns="http://www.w3.org/2000/svg"><g clip-path="url(#clip0)" fill="#001E4D"><path d="M63.654 26.836l.92 1.161 5.335.003-2.833-3.522.005-.005-4.4-5.483-5.349-.002 3.362 4.19a6.947 6.947 0 01-2.395.399c-4.154 0-7.344-3.29-7.344-7.577 0-4.32 3.19-7.577 7.344-7.577 4.19 0 7.38 3.254 7.38 7.577 0 .394-.027.78-.08 1.157l3.617 4.507c.91-1.674 1.416-3.593 1.416-5.664 0-6.715-5.418-12-12.333-12C51.418 4 46 9.285 46 16s5.42 11.997 12.3 11.997c1.931 0 3.724-.399 5.354-1.16zM82.435 9.983c5.185 0 9.24 3.955 9.24 9.007 0 5.053-4.055 8.974-9.24 8.974-5.185 0-9.24-3.921-9.24-8.974 0-5.052 4.055-9.007 9.24-9.007zm4.786 9.007c0-2.857-2.092-5.052-4.786-5.052-2.66 0-4.789 2.195-4.789 5.052 0 2.794 2.095 5.022 4.79 5.022 2.693 0 4.785-2.228 4.785-5.022zM105.307 14.304c-.665-.297-1.496-.463-2.328-.463-1.762 0-3.323.895-4.19 2.591v11.202h-4.553V10.316h4.553v1.896c1.097-1.497 2.694-2.295 4.623-2.295.895.036 1.43.133 1.895.402M116.238 27.964c-5.252 0-9.307-3.921-9.307-8.974 0-5.019 3.889-8.973 8.91-8.973 4.917 0 8.575 3.988 8.575 9.306v1.197h-12.895c.632 2.159 2.524 3.625 4.919 3.625 1.53 0 2.89-.499 3.822-1.397l2.497 3.11c-1.971 1.457-3.977 2.106-6.521 2.106zm-4.753-10.7h8.474c-.562-2.062-2.225-3.492-4.218-3.492-2.097 0-3.691 1.363-4.256 3.492z"/></g><path d="M31.51 4.92H4.045L.49.49h27.465l3.555 4.43z" fill="#037AA9"/><path d="M14.936 13.785H4.046L.49 9.35h10.891l3.555 4.434zM31.51 13.785H20.62L17.064 9.35h10.891l3.555 4.434z" fill="#049FDC"/><path d="M31.51 22.646H4.045L.49 18.216h27.465l3.555 4.43z" fill="#4FBCE7"/><path d="M31.51 31.51H20.62l-3.555-4.43h10.891l3.555 4.43z" fill="#9BD9F1"/><defs><clipPath id="clip0"><path fill="#fff" transform="translate(46 4)" d="M0 0h78.416v24H0z"/></clipPath></defs></svg>
